<?xml version="1.0" encoding="UTF-8" standalone="no"?>
<!DOCTYPE svg PUBLIC "-//W3C//DTD SVG 1.1//EN"
 "http://www.w3.org/Graphics/SVG/1.1/DTD/svg11.dtd">
<!-- Generated by graphviz version 2.40.1 (20161225.0304)
 -->
<!-- Title: %3 Pages: 1 -->
<svg width="1068pt" height="388pt"
 viewBox="0.00 0.00 1068.00 388.00" xmlns="http://www.w3.org/2000/svg" xmlns:xlink="http://www.w3.org/1999/xlink">
<g id="graph0" class="graph" transform="scale(1 1) rotate(0) translate(4 384)">
<title>%3</title>
<polygon fill="#ffffff" stroke="transparent" points="-4,4 -4,-384 1064,-384 1064,4 -4,4"/>
<g id="clust1" class="cluster">
<title>cluster_t1</title>
<polygon fill="none" stroke="#000000" points="532,-8 532,-298 1052,-298 1052,-8 532,-8"/>
<text text-anchor="middle" x="792" y="-282.8" font-family="Times,serif" font-size="14.00" fill="#000000">t1</text>
</g>
<g id="clust2" class="cluster">
<title>cluster_t2</title>
<polygon fill="none" stroke="#000000" points="8,-80 8,-372 524,-372 524,-80 8,-80"/>
<text text-anchor="middle" x="266" y="-356.8" font-family="Times,serif" font-size="14.00" fill="#000000">t2</text>
</g>
<!-- t1 -->
<g id="node1" class="node">
<title>t1</title>
<g id="a_node1"><a xlink:title="weight: 58">
<ellipse fill="none" stroke="#000000" cx="667" cy="-250" rx="27" ry="18"/>
<text text-anchor="middle" x="667" y="-245.8" font-family="Times,serif" font-size="14.00" fill="#000000">t1/</text>
</a>
</g>
</g>
<!-- t1a -->
<g id="node2" class="node">
<title>t1a</title>
<ellipse fill="none" stroke="#000000" cx="746" cy="-178" rx="27" ry="18"/>
<text text-anchor="middle" x="746" y="-173.8" font-family="Times,serif" font-size="14.00" fill="#000000">t1a</text>
</g>
<!-- t1&#45;&gt;t1a -->
<g id="edge1" class="edge">
<title>t1&#45;&gt;t1a</title>
<path fill="none" stroke="#000000" d="M682.9868,-235.4297C694.3372,-225.0851 709.7602,-211.0286 722.5067,-199.4116"/>
<polygon fill="#000000" stroke="#000000" points="725.0036,-201.8715 730.0369,-192.5486 720.2884,-196.6978 725.0036,-201.8715"/>
</g>
<!-- t1bar -->
<g id="node3" class="node">
<title>t1bar</title>
<ellipse fill="none" stroke="#000000" cx="819" cy="-178" rx="28.0565" ry="18"/>
<text text-anchor="middle" x="819" y="-173.8" font-family="Times,serif" font-size="14.00" fill="#000000">t1bar</text>
</g>
<!-- t1&#45;&gt;t1bar -->
<g id="edge2" class="edge">
<title>t1&#45;&gt;t1bar</title>
<path fill="none" stroke="#000000" d="M689.5198,-239.5371C712.7356,-228.7247 749.9606,-211.3148 782,-196 783.5951,-195.2375 785.2277,-194.4542 786.8755,-193.6613"/>
<polygon fill="#000000" stroke="#000000" points="788.8465,-196.596 796.3257,-189.0918 785.7993,-190.294 788.8465,-196.596"/>
</g>
<!-- t1baz -->
<g id="node4" class="node">
<title>t1baz</title>
<g id="a_node4"><a xlink:title="weight: 45">
<ellipse fill="none" stroke="#000000" cx="581" cy="-178" rx="34.344" ry="18"/>
<text text-anchor="middle" x="581" y="-173.8" font-family="Times,serif" font-size="14.00" fill="#000000">t1//baz</text>
</a>
</g>
</g>
<!-- t1&#45;&gt;t1baz -->
<g id="edge3" class="edge">
<title>t1&#45;&gt;t1baz</title>
<path fill="none" stroke="#000000" d="M650.0092,-235.7751C637.815,-225.566 621.1507,-211.6145 607.2527,-199.979"/>
<polygon fill="#000000" stroke="#000000" points="609.3586,-197.1774 599.4442,-193.4417 604.865,-202.5447 609.3586,-197.1774"/>
</g>
<!-- t1foo -->
<g id="node5" class="node">
<title>t1foo</title>
<g id="a_node5"><a xlink:title="weight: 4">
<ellipse fill="none" stroke="#000000" cx="667" cy="-178" rx="33.877" ry="18"/>
<text text-anchor="middle" x="667" y="-173.8" font-family="Times,serif" font-size="14.00" fill="#000000">t1//foo</text>
</a>
</g>
</g>
<!-- t1&#45;&gt;t1foo -->
<g id="edge4" class="edge">
<title>t1&#45;&gt;t1foo</title>
<path fill="none" stroke="#000000" d="M667,-231.8314C667,-224.131 667,-214.9743 667,-206.4166"/>
<polygon fill="#000000" stroke="#000000" points="670.5001,-206.4132 667,-196.4133 663.5001,-206.4133 670.5001,-206.4132"/>
</g>
<!-- t1baza -->
<g id="node6" class="node">
<title>t1baza</title>
<g id="a_node6"><a xlink:title="weight: 25">
<ellipse fill="none" stroke="#000000" cx="581" cy="-106" rx="40.6075" ry="18"/>
<text text-anchor="middle" x="581" y="-101.8" font-family="Times,serif" font-size="14.00" fill="#000000">t1//baz/a</text>
</a>
</g>
</g>
<!-- t1baz&#45;&gt;t1baza -->
<g id="edge5" class="edge">
<title>t1baz&#45;&gt;t1baza</title>
<path fill="none" stroke="#000000" d="M581,-159.8314C581,-152.131 581,-142.9743 581,-134.4166"/>
<polygon fill="#000000" stroke="#000000" points="584.5001,-134.4132 581,-124.4133 577.5001,-134.4133 584.5001,-134.4132"/>
</g>
<!-- t1baze -->
<g id="node7" class="node">
<title>t1baze</title>
<ellipse fill="none" stroke="#000000" cx="673" cy="-106" rx="33.3665" ry="18"/>
<text text-anchor="middle" x="673" y="-101.8" font-family="Times,serif" font-size="14.00" fill="#000000">t1baze</text>
</g>
<!-- t1baz&#45;&gt;t1baze -->
<g id="edge6" class="edge">
<title>t1baz&#45;&gt;t1baze</title>
<path fill="none" stroke="#000000" d="M600.5108,-162.7307C613.6503,-152.4476 631.1638,-138.7414 645.6846,-127.3773"/>
<polygon fill="#000000" stroke="#000000" points="648.1148,-129.9198 653.8328,-121.0004 643.8006,-124.4073 648.1148,-129.9198"/>
</g>
<!-- t1bazg -->
<g id="node8" class="node">
<title>t1bazg</title>
<ellipse fill="none" stroke="#000000" cx="758" cy="-106" rx="33.8596" ry="18"/>
<text text-anchor="middle" x="758" y="-101.8" font-family="Times,serif" font-size="14.00" fill="#000000">t1bazg</text>
</g>
<!-- t1baz&#45;&gt;t1bazg -->
<g id="edge7" class="edge">
<title>t1baz&#45;&gt;t1bazg</title>
<path fill="none" stroke="#000000" d="M607.8035,-166.684C613.1604,-164.4495 618.753,-162.1358 624,-160 664.2846,-143.6018 674.7154,-140.3982 715,-124 717.2136,-123.0989 719.4887,-122.1662 721.7816,-121.2212"/>
<polygon fill="#000000" stroke="#000000" points="723.3005,-124.3804 731.1965,-117.316 720.6185,-117.9145 723.3005,-124.3804"/>
</g>
<!-- t1foo0 -->
<g id="node12" class="node">
<title>t1foo0</title>
<ellipse fill="none" stroke="#000000" cx="843" cy="-106" rx="33.3925" ry="18"/>
<text text-anchor="middle" x="843" y="-101.8" font-family="Times,serif" font-size="14.00" fill="#000000">t1foo0</text>
</g>
<!-- t1foo&#45;&gt;t1foo0 -->
<g id="edge11" class="edge">
<title>t1foo&#45;&gt;t1foo0</title>
<path fill="none" stroke="#000000" d="M693.8035,-166.684C699.1604,-164.4495 704.753,-162.1358 710,-160 750.2846,-143.6018 760.785,-140.5683 801,-124 803.0859,-123.1406 805.2266,-122.2501 807.3843,-121.3459"/>
<polygon fill="#000000" stroke="#000000" points="808.9883,-124.4677 816.8348,-117.3485 806.2613,-118.0207 808.9883,-124.4677"/>
</g>
<!-- t1foo1 -->
<g id="node13" class="node">
<title>t1foo1</title>
<ellipse fill="none" stroke="#000000" cx="927" cy="-106" rx="33.3925" ry="18"/>
<text text-anchor="middle" x="927" y="-101.8" font-family="Times,serif" font-size="14.00" fill="#000000">t1foo1</text>
</g>
<!-- t1foo&#45;&gt;t1foo1 -->
<g id="edge12" class="edge">
<title>t1foo&#45;&gt;t1foo1</title>
<path fill="none" stroke="#000000" d="M693.081,-166.1364C698.5957,-163.8965 704.4327,-161.7201 710,-160 785.8678,-136.5594 809.2319,-147.761 885,-124 887.2993,-123.2789 889.6442,-122.4756 891.9916,-121.6196"/>
<polygon fill="#000000" stroke="#000000" points="893.5082,-124.7846 901.5446,-117.8805 890.9568,-118.2661 893.5082,-124.7846"/>
</g>
<!-- t1foo2 -->
<g id="node14" class="node">
<title>t1foo2</title>
<ellipse fill="none" stroke="#000000" cx="1011" cy="-106" rx="33.3925" ry="18"/>
<text text-anchor="middle" x="1011" y="-101.8" font-family="Times,serif" font-size="14.00" fill="#000000">t1foo2</text>
</g>
<!-- t1foo&#45;&gt;t1foo2 -->
<g id="edge13" class="edge">
<title>t1foo&#45;&gt;t1foo2</title>
<path fill="none" stroke="#000000" d="M692.54,-166.0409C698.1941,-163.753 704.2238,-161.5817 710,-160 822.0913,-129.3063 857.0394,-155.1671 969,-124 971.4743,-123.3112 973.9944,-122.5088 976.5093,-121.6324"/>
<polygon fill="#000000" stroke="#000000" points="977.9872,-124.8145 986.0747,-117.9703 975.4843,-118.2772 977.9872,-124.8145"/>
</g>
<!-- t1bazad -->
<g id="node9" class="node">
<title>t1bazad</title>
<ellipse fill="none" stroke="#000000" cx="764" cy="-34" rx="37.7092" ry="18"/>
<text text-anchor="middle" x="764" y="-29.8" font-family="Times,serif" font-size="14.00" fill="#000000">t1bazad</text>
</g>
<!-- t1baza&#45;&gt;t1bazad -->
<g id="edge8" class="edge">
<title>t1baza&#45;&gt;t1bazad</title>
<path fill="none" stroke="#000000" d="M606.3055,-91.812C614.0982,-87.7244 622.7895,-83.4437 631,-80 668.0686,-64.4525 679.1074,-65.4148 717,-52 719.7027,-51.0432 722.4847,-50.036 725.2812,-49.0069"/>
<polygon fill="#000000" stroke="#000000" points="726.6107,-52.2466 734.7516,-45.4659 724.1591,-45.6899 726.6107,-52.2466"/>
</g>
<!-- t1bazab -->
<g id="node10" class="node">
<title>t1bazab</title>
<ellipse fill="none" stroke="#000000" cx="578" cy="-34" rx="37.7092" ry="18"/>
<text text-anchor="middle" x="578" y="-29.8" font-family="Times,serif" font-size="14.00" fill="#000000">t1bazab</text>
</g>
<!-- t1baza&#45;&gt;t1bazab -->
<g id="edge9" class="edge">
<title>t1baza&#45;&gt;t1bazab</title>
<path fill="none" stroke="#000000" d="M580.243,-87.8314C579.9221,-80.131 579.5406,-70.9743 579.184,-62.4166"/>
<polygon fill="#000000" stroke="#000000" points="582.6806,-62.2589 578.7672,-52.4133 575.6867,-62.5503 582.6806,-62.2589"/>
</g>
<!-- t1bazac -->
<g id="node11" class="node">
<title>t1bazac</title>
<ellipse fill="none" stroke="#000000" cx="671" cy="-34" rx="37.2161" ry="18"/>
<text text-anchor="middle" x="671" y="-29.8" font-family="Times,serif" font-size="14.00" fill="#000000">t1bazac</text>
</g>
<!-- t1baza&#45;&gt;t1bazac -->
<g id="edge10" class="edge">
<title>t1baza&#45;&gt;t1bazac</title>
<path fill="none" stroke="#000000" d="M600.9739,-90.0209C613.4966,-80.0028 629.8104,-66.9517 643.5411,-55.9671"/>
<polygon fill="#000000" stroke="#000000" points="646.0774,-58.4203 651.6996,-49.4403 641.7045,-52.9542 646.0774,-58.4203"/>
</g>
<!-- t2 -->
<g id="node15" class="node">
<title>t2</title>
<g id="a_node15"><a xlink:title="weight: 76">
<ellipse fill="none" stroke="#000000" cx="415" cy="-324" rx="27" ry="18"/>
<text text-anchor="middle" x="415" y="-319.8" font-family="Times,serif" font-size="14.00" fill="#000000">t2/</text>
</a>
</g>
</g>
<!-- t2&#45;&gt;t1 -->
<g id="edge27" class="edge">
<title>t2&#45;&gt;t1</title>
<path fill="none" stroke="#ff0000" d="M441.2329,-318.7904C464.2653,-314.0205 498.5874,-306.4363 528,-298 564.5005,-287.5307 605.5079,-273.024 633.4643,-262.7053"/>
<polygon fill="#ff0000" stroke="#ff0000" points="634.9871,-265.8733 643.141,-259.1084 632.5481,-259.3119 634.9871,-265.8733"/>
</g>
<!-- t2foo -->
<g id="node16" class="node">
<title>t2foo</title>
<g id="a_node16"><a xlink:title="weight: 4">
<ellipse fill="none" stroke="#000000" cx="336" cy="-250" rx="33.877" ry="18"/>
<text text-anchor="middle" x="336" y="-245.8" font-family="Times,serif" font-size="14.00" fill="#000000">t2//foo</text>
</a>
</g>
</g>
<!-- t2&#45;&gt;t2foo -->
<g id="edge14" class="edge">
<title>t2&#45;&gt;t2foo</title>
<path fill="none" stroke="#000000" d="M395.7251,-311.2366C390.1376,-307.2337 384.1571,-302.6421 379,-298 371.1834,-290.964 363.3095,-282.6234 356.4744,-274.8849"/>
<polygon fill="#000000" stroke="#000000" points="358.6974,-272.1032 349.5171,-266.8143 353.3955,-276.6738 358.6974,-272.1032"/>
</g>
<!-- t2a -->
<g id="node17" class="node">
<title>t2a</title>
<ellipse fill="none" stroke="#000000" cx="415" cy="-250" rx="27" ry="18"/>
<text text-anchor="middle" x="415" y="-245.8" font-family="Times,serif" font-size="14.00" fill="#000000">t2a</text>
</g>
<!-- t2&#45;&gt;t2a -->
<g id="edge15" class="edge">
<title>t2&#45;&gt;t2a</title>
<path fill="none" stroke="#000000" d="M415,-305.7079C415,-297.4635 415,-287.5376 415,-278.3622"/>
<polygon fill="#000000" stroke="#000000" points="418.5001,-278.0817 415,-268.0817 411.5001,-278.0818 418.5001,-278.0817"/>
</g>
<!-- t2bar -->
<g id="node18" class="node">
<title>t2bar</title>
<ellipse fill="none" stroke="#000000" cx="488" cy="-250" rx="28.0565" ry="18"/>
<text text-anchor="middle" x="488" y="-245.8" font-family="Times,serif" font-size="14.00" fill="#000000">t2bar</text>
</g>
<!-- t2&#45;&gt;t2bar -->
<g id="edge16" class="edge">
<title>t2&#45;&gt;t2bar</title>
<path fill="none" stroke="#000000" d="M434.4954,-311.4726C440.0891,-307.4763 446.0177,-302.8292 451,-298 458.1019,-291.1164 464.9769,-282.8163 470.8342,-275.068"/>
<polygon fill="#000000" stroke="#000000" points="473.6778,-277.1087 476.753,-266.9699 468.0264,-272.9781 473.6778,-277.1087"/>
</g>
<!-- t2baz -->
<g id="node19" class="node">
<title>t2baz</title>
<g id="a_node19"><a xlink:title="weight: 64">
<ellipse fill="none" stroke="#000000" cx="231" cy="-250" rx="34.344" ry="18"/>
<text text-anchor="middle" x="231" y="-245.8" font-family="Times,serif" font-size="14.00" fill="#000000">t2//baz</text>
</a>
</g>
</g>
<!-- t2&#45;&gt;t2baz -->
<g id="edge17" class="edge">
<title>t2&#45;&gt;t2baz</title>
<path fill="none" stroke="#000000" d="M387.725,-321.7061C362.2455,-318.7627 323.6461,-312.2181 293,-298 279.3222,-291.6542 265.8735,-281.8137 255.0163,-272.6906"/>
<polygon fill="#000000" stroke="#000000" points="257.0948,-269.8593 247.258,-265.9238 252.4936,-275.1346 257.0948,-269.8593"/>
</g>
<!-- t2foo&#45;&gt;t1foo -->
<g id="edge36" class="edge">
<title>t2foo&#45;&gt;t1foo</title>
<path fill="none" stroke="#ff0000" d="M361.5494,-238.0749C367.2029,-235.7849 373.23,-233.6041 379,-232 485.0365,-202.5202 517.9635,-225.4798 624,-196 626.6145,-195.2731 629.2818,-194.4279 631.9433,-193.5077"/>
<polygon fill="#ff0000" stroke="#ff0000" points="633.3272,-196.7265 641.4506,-189.9251 630.8588,-190.1761 633.3272,-196.7265"/>
</g>
<!-- t2foo1 -->
<g id="node20" class="node">
<title>t2foo1</title>
<ellipse fill="none" stroke="#000000" cx="399" cy="-178" rx="33.3925" ry="18"/>
<text text-anchor="middle" x="399" y="-173.8" font-family="Times,serif" font-size="14.00" fill="#000000">t2foo1</text>
</g>
<!-- t2foo&#45;&gt;t2foo1 -->
<g id="edge18" class="edge">
<title>t2foo&#45;&gt;t2foo1</title>
<path fill="none" stroke="#000000" d="M350.2957,-233.6621C358.5117,-224.2723 368.9803,-212.3082 378.1048,-201.8802"/>
<polygon fill="#000000" stroke="#000000" points="380.8098,-204.1038 384.7609,-194.2733 375.5418,-199.4943 380.8098,-204.1038"/>
</g>
<!-- t2foo2 -->
<g id="node21" class="node">
<title>t2foo2</title>
<ellipse fill="none" stroke="#000000" cx="483" cy="-178" rx="33.3925" ry="18"/>
<text text-anchor="middle" x="483" y="-173.8" font-family="Times,serif" font-size="14.00" fill="#000000">t2foo2</text>
</g>
<!-- t2foo&#45;&gt;t2foo2 -->
<g id="edge19" class="edge">
<title>t2foo&#45;&gt;t2foo2</title>
<path fill="none" stroke="#000000" d="M360.9365,-237.7862C385.117,-225.9427 421.9904,-207.8822 448.8825,-194.7106"/>
<polygon fill="#000000" stroke="#000000" points="450.5,-197.8157 457.9411,-190.2737 447.4209,-191.5292 450.5,-197.8157"/>
</g>
<!-- t2foo0 -->
<g id="node22" class="node">
<title>t2foo0</title>
<ellipse fill="none" stroke="#000000" cx="315" cy="-178" rx="33.3925" ry="18"/>
<text text-anchor="middle" x="315" y="-173.8" font-family="Times,serif" font-size="14.00" fill="#000000">t2foo0</text>
</g>
<!-- t2foo&#45;&gt;t2foo0 -->
<g id="edge20" class="edge">
<title>t2foo&#45;&gt;t2foo0</title>
<path fill="none" stroke="#000000" d="M330.809,-232.2022C328.4616,-224.1541 325.6338,-214.4588 323.0228,-205.5067"/>
<polygon fill="#000000" stroke="#000000" points="326.3641,-204.4625 320.2041,-195.8425 319.6441,-206.4226 326.3641,-204.4625"/>
</g>
<!-- t2a&#45;&gt;t1a -->
<g id="edge28" class="edge">
<title>t2a&#45;&gt;t1a</title>
<path fill="none" stroke="#ff0000" d="M435.8426,-238.1516C440.6945,-235.7997 445.9279,-233.5739 451,-232 561.9968,-197.5577 599.0032,-230.4423 710,-196 711.902,-195.4098 713.8267,-194.7279 715.7455,-193.9821"/>
<polygon fill="#ff0000" stroke="#ff0000" points="717.409,-197.0743 725.1574,-189.8484 714.594,-190.6652 717.409,-197.0743"/>
</g>
<!-- t2bar&#45;&gt;t1bar -->
<g id="edge29" class="edge">
<title>t2bar&#45;&gt;t1bar</title>
<path fill="none" stroke="#ff0000" d="M510.425,-238.5772C516.0475,-236.0874 522.1482,-233.6943 528,-232 637.5191,-200.2909 672.9676,-229.3442 782,-196 783.9469,-195.4046 785.9188,-194.7187 787.8862,-193.9698"/>
<polygon fill="#ff0000" stroke="#ff0000" points="789.7351,-196.9853 797.5468,-189.8279 786.9767,-190.5517 789.7351,-196.9853"/>
</g>
<!-- t2baz&#45;&gt;t1baz -->
<g id="edge30" class="edge">
<title>t2baz&#45;&gt;t1baz</title>
<path fill="none" stroke="#ff0000" d="M260.4417,-240.5999C270.6744,-237.5607 282.2741,-234.3679 293,-232 396.1784,-209.2216 425.3582,-221.0861 528,-196 533.0045,-194.7769 538.2093,-193.2884 543.3167,-191.6969"/>
<polygon fill="#ff0000" stroke="#ff0000" points="544.5221,-194.9852 552.9403,-188.5521 542.3477,-188.3314 544.5221,-194.9852"/>
</g>
<!-- t2baza -->
<g id="node23" class="node">
<title>t2baza</title>
<g id="a_node23"><a xlink:title="weight: 25">
<ellipse fill="none" stroke="#000000" cx="139" cy="-178" rx="40.6075" ry="18"/>
<text text-anchor="middle" x="139" y="-173.8" font-family="Times,serif" font-size="14.00" fill="#000000">t2//baz/a</text>
</a>
</g>
</g>
<!-- t2baz&#45;&gt;t2baza -->
<g id="edge21" class="edge">
<title>t2baz&#45;&gt;t2baza</title>
<path fill="none" stroke="#000000" d="M211.4892,-234.7307C198.6143,-224.6547 181.5397,-211.2919 167.1961,-200.0665"/>
<polygon fill="#000000" stroke="#000000" points="169.1509,-197.1519 159.1187,-193.7451 164.8367,-202.6645 169.1509,-197.1519"/>
</g>
<!-- t2baze -->
<g id="node24" class="node">
<title>t2baze</title>
<ellipse fill="none" stroke="#000000" cx="231" cy="-178" rx="33.3665" ry="18"/>
<text text-anchor="middle" x="231" y="-173.8" font-family="Times,serif" font-size="14.00" fill="#000000">t2baze</text>
</g>
<!-- t2baz&#45;&gt;t2baze -->
<g id="edge22" class="edge">
<title>t2baz&#45;&gt;t2baze</title>
<path fill="none" stroke="#000000" d="M231,-231.8314C231,-224.131 231,-214.9743 231,-206.4166"/>
<polygon fill="#000000" stroke="#000000" points="234.5001,-206.4132 231,-196.4133 227.5001,-206.4133 234.5001,-206.4132"/>
</g>
<!-- t2bazf -->
<g id="node25" class="node">
<title>t2bazf</title>
<ellipse fill="none" stroke="#000000" cx="48" cy="-178" rx="32.4063" ry="18"/>
<text text-anchor="middle" x="48" y="-173.8" font-family="Times,serif" font-size="14.00" fill="#000000">t2bazf</text>
</g>
<!-- t2baz&#45;&gt;t2bazf -->
<g id="edge23" class="edge">
<title>t2baz&#45;&gt;t2bazf</title>
<path fill="none" stroke="#000000" d="M202.8159,-239.7576C174.0456,-229.1909 128.1768,-212.0371 89,-196 86.9541,-195.1625 84.8568,-194.289 82.7448,-193.3977"/>
<polygon fill="#000000" stroke="#000000" points="84.0744,-190.1597 73.5045,-189.4337 81.3147,-196.5927 84.0744,-190.1597"/>
</g>
<!-- t2foo1&#45;&gt;t1foo1 -->
<g id="edge38" class="edge">
<title>t2foo1&#45;&gt;t1foo1</title>
<path fill="none" stroke="#ff0000" d="M423.8606,-165.7835C429.3885,-163.5116 435.3018,-161.412 441,-160 633.1692,-112.3823 692.8308,-171.6177 885,-124 887.4929,-123.3823 890.0271,-122.6329 892.5521,-121.7951"/>
<polygon fill="#ff0000" stroke="#ff0000" points="893.9947,-124.9925 902.1394,-118.2165 891.5468,-118.4345 893.9947,-124.9925"/>
</g>
<!-- t2foo2&#45;&gt;t1foo2 -->
<g id="edge39" class="edge">
<title>t2foo2&#45;&gt;t1foo2</title>
<path fill="none" stroke="#ff0000" d="M508.7468,-166.174C514.9379,-163.7605 521.6111,-161.5025 528,-160 719.4294,-114.9803 778.1337,-171.3503 969,-124 971.4928,-123.3816 974.0268,-122.6317 976.5517,-121.7935"/>
<polygon fill="#ff0000" stroke="#ff0000" points="977.9947,-124.9908 986.1388,-118.2141 975.5463,-118.433 977.9947,-124.9908"/>
</g>
<!-- t2foo0&#45;&gt;t1foo0 -->
<g id="edge37" class="edge">
<title>t2foo0&#45;&gt;t1foo0</title>
<path fill="none" stroke="#ff0000" d="M339.8606,-165.7835C345.3885,-163.5116 351.3018,-161.412 357,-160 549.1692,-112.3823 608.8308,-171.6177 801,-124 803.4929,-123.3823 806.0271,-122.6329 808.5521,-121.7951"/>
<polygon fill="#ff0000" stroke="#ff0000" points="809.9947,-124.9925 818.1394,-118.2165 807.5468,-118.4345 809.9947,-124.9925"/>
</g>
<!-- t2baza&#45;&gt;t1baza -->
<g id="edge31" class="edge">
<title>t2baza&#45;&gt;t1baza</title>
<path fill="none" stroke="#ff0000" d="M169.0587,-165.8665C175.5496,-163.6183 182.4359,-161.507 189,-160 336.6719,-126.0963 380.0264,-156.5618 528,-124 532.1106,-123.0955 536.3474,-121.9817 540.55,-120.7555"/>
<polygon fill="#ff0000" stroke="#ff0000" points="541.7168,-124.0579 550.2186,-117.7357 539.6298,-117.3762 541.7168,-124.0579"/>
</g>
<!-- t2bazad -->
<g id="node26" class="node">
<title>t2bazad</title>
<ellipse fill="none" stroke="#000000" cx="458" cy="-106" rx="37.7092" ry="18"/>
<text text-anchor="middle" x="458" y="-101.8" font-family="Times,serif" font-size="14.00" fill="#000000">t2bazad</text>
</g>
<!-- t2baza&#45;&gt;t2bazad -->
<g id="edge24" class="edge">
<title>t2baza&#45;&gt;t2bazad</title>
<path fill="none" stroke="#000000" d="M169.703,-166.1169C176.0281,-163.9042 182.6858,-161.7433 189,-160 269.3231,-137.8232 291.3484,-140.6321 373,-124 386.1791,-121.3155 400.4891,-118.3174 413.5435,-115.5498"/>
<polygon fill="#000000" stroke="#000000" points="414.645,-118.8939 423.6981,-113.3901 413.1887,-112.0471 414.645,-118.8939"/>
</g>
<!-- t2bazab -->
<g id="node27" class="node">
<title>t2bazab</title>
<ellipse fill="none" stroke="#000000" cx="158" cy="-106" rx="37.7092" ry="18"/>
<text text-anchor="middle" x="158" y="-101.8" font-family="Times,serif" font-size="14.00" fill="#000000">t2bazab</text>
</g>
<!-- t2baza&#45;&gt;t2bazab -->
<g id="edge25" class="edge">
<title>t2baza&#45;&gt;t2bazab</title>
<path fill="none" stroke="#000000" d="M143.7945,-159.8314C145.8805,-151.9266 148.3714,-142.4872 150.6806,-133.7365"/>
<polygon fill="#000000" stroke="#000000" points="154.1054,-134.4755 153.2728,-123.9134 147.3371,-132.6894 154.1054,-134.4755"/>
</g>
<!-- t2bazac -->
<g id="node28" class="node">
<title>t2bazac</title>
<ellipse fill="none" stroke="#000000" cx="327" cy="-106" rx="37.2161" ry="18"/>
<text text-anchor="middle" x="327" y="-101.8" font-family="Times,serif" font-size="14.00" fill="#000000">t2bazac</text>
</g>
<!-- t2baza&#45;&gt;t2bazac -->
<g id="edge26" class="edge">
<title>t2baza&#45;&gt;t2bazac</title>
<path fill="none" stroke="#000000" d="M170.0444,-166.1107C202.4562,-153.6976 253.3496,-134.2065 288.3462,-120.8036"/>
<polygon fill="#000000" stroke="#000000" points="289.6801,-124.0407 297.7669,-117.1957 287.1765,-117.5037 289.6801,-124.0407"/>
</g>
<!-- t2baze&#45;&gt;t1baze -->
<g id="edge35" class="edge">
<title>t2baze&#45;&gt;t1baze</title>
<path fill="none" stroke="#ff0000" d="M255.8816,-165.8669C261.4083,-163.5898 267.3157,-161.4669 273,-160 427.8406,-120.0407 476.1594,-163.9593 631,-124 633.4869,-123.3582 636.0164,-122.5909 638.5382,-121.74"/>
<polygon fill="#ff0000" stroke="#ff0000" points="639.9929,-124.9322 648.1184,-118.1331 637.5264,-118.3812 639.9929,-124.9322"/>
</g>
<!-- t2bazad&#45;&gt;t1bazad -->
<g id="edge33" class="edge">
<title>t2bazad&#45;&gt;t1bazad</title>
<path fill="none" stroke="#ff0000" d="M486.1791,-94.0031C498.7802,-89.0393 513.9366,-83.6113 528,-80 610.2484,-58.8796 634.8595,-73.5359 717,-52 719.9476,-51.2272 722.9644,-50.3309 725.9768,-49.359"/>
<polygon fill="#ff0000" stroke="#ff0000" points="727.1934,-52.6417 735.4933,-46.0567 724.8985,-46.0285 727.1934,-52.6417"/>
</g>
<!-- t2bazab&#45;&gt;t1bazab -->
<g id="edge34" class="edge">
<title>t2bazab&#45;&gt;t1bazab</title>
<path fill="none" stroke="#ff0000" d="M192.0992,-98.269C216.732,-92.8123 250.8353,-85.5199 281,-80 369.3628,-63.8304 473.2004,-48.6048 531.7348,-40.3665"/>
<polygon fill="#ff0000" stroke="#ff0000" points="532.3577,-43.8135 541.7751,-38.9595 531.3861,-36.8813 532.3577,-43.8135"/>
</g>
<!-- t2bazac&#45;&gt;t1bazac -->
<g id="edge32" class="edge">
<title>t2bazac&#45;&gt;t1bazac</title>
<path fill="none" stroke="#ff0000" d="M356.9953,-95.3547C372.8746,-90.0672 392.8049,-83.976 411,-80 504.7105,-59.5225 532.097,-75.875 625,-52 627.8032,-51.2796 630.6668,-50.4363 633.5262,-49.515"/>
<polygon fill="#ff0000" stroke="#ff0000" points="634.8572,-52.7574 643.1374,-46.1476 632.5426,-46.1511 634.8572,-52.7574"/>
</g>
</g>
</svg>
